<?xml version="1.0" encoding="utf-8"?>
<svg version="1.1" id="レイヤー_1" xmlns="http://www.w3.org/2000/svg" xmlns:xlink="http://www.w3.org/1999/xlink" x="0px"
	 y="0px" viewBox="0 0 742.52 216" style="enable-background:new 0 0 742.52 216;" xml:space="preserve">
<style type="text/css">
	.st0{fill:none;stroke:#000000;stroke-width:0.25;stroke-linecap:round;stroke-linejoin:round;stroke-miterlimit:11.3386;}
</style>
<path class="st0" d="M742.5,0.71c0-0.39-0.32-0.71-0.71-0.71h-49.51c-0.39,0-0.71,0.32-0.71,0.71v12.83c0,0.39,0.32,0.71,0.71,0.71
	h4.09c0.39,0,0.71-0.32,0.71-0.71v-0.71c0-3.13,2.54-5.67,5.67-5.67h2.83V5.04c0-0.39,0.32-0.71,0.71-0.71h18.43
	c0.39,0,0.71,0.32,0.71,0.71v1.42c0,0.39,0.32,0.71,0.71,0.71h9.92c0.39,0,0.71,0.32,0.71,0.71v9.92c0,0.39-0.32,0.71-0.71,0.71
	h-1.42c-0.39,0-0.71,0.32-0.71,0.71v10.62c0,2.35-1.9,4.25-4.25,4.25h-31.73c-0.39,0-0.71,0.32-0.71,0.71v10.63
	c0,0.39,0.32,0.71,0.71,0.71h26.76c0.39,0,0.71,0.32,0.71,0.71v2.83c0,0.39-0.32,0.71-0.71,0.71h-6.48c-0.39,0-0.71,0.32-0.71,0.71
	v7.12c0,0.39-0.32,0.71-0.71,0.71h-7.09c-0.39,0-0.71-0.32-0.71-0.71v-2.37c0-0.39-0.32-0.71-0.71-0.71h-17.43
	c-0.39,0-0.71,0.32-0.71,0.71v11.08c0,0.39-0.32,0.71-0.71,0.71h-6.22c-0.39,0-0.71,0.32-0.71,0.71v12.51
	c0,0.39-0.32,0.71-0.71,0.71h-2.83c-0.39,0-0.71-0.32-0.71-0.71V68.35c0-0.39-0.32-0.71-0.71-0.71h-2.29
	c-0.39,0-0.71-0.32-0.71-0.71V46.14h-8.52c-0.39,0-0.71-0.32-0.71-0.71v-2.48c0-0.39-0.32-0.71-0.71-0.71h-7.29
	c-0.39,0-0.71-0.32-0.71-0.71V34.8c0-0.39-0.32-0.71-0.71-0.71h-28.86c-2.35,0-4.25-1.9-4.25-4.25V26.3c0-0.39-0.32-0.71-0.71-0.71
	h-4.96c-0.39,0-0.71-0.32-0.71-0.71v-9.92c0-0.39,0.32-0.71,0.71-0.71h4.96c0.39,0,0.71-0.32,0.71-0.71v-0.71
	c0-3.13,2.54-5.67,5.67-5.67h32.6c0.39,0,0.71-0.32,0.71-0.71V0.71c0-0.39-0.32-0.71-0.71-0.71H330.36c-0.39,0-0.71,0.32-0.71,0.71
	v4.95c0,3.13-2.54,5.67-5.67,5.67h-5.01c-0.39,0-0.71,0.32-0.71,0.71v5.75c0,0.39-0.32,0.71-0.71,0.71h-1.42
	c-0.39,0-0.71,0.32-0.71,0.71v10.63c0,2.35-1.9,4.25-4.25,4.25h-31.72c-0.39,0-0.71,0.32-0.71,0.71v6.73c0,0.39-0.32,0.71-0.71,0.71
	h-5.13c-0.39,0-0.71-0.32-0.71-0.71V14.96c0-0.39,0.32-0.71,0.71-0.71h4.96c0.39,0,0.71-0.32,0.71-0.71v-0.71
	c0-3.13,2.54-5.67,5.67-5.67h33.36c0.39,0,0.71-0.32,0.71-0.71V0.71c0-0.39-0.32-0.71-0.71-0.71H0.71C0.32,0,0,0.32,0,0.71v214.58
	c0,0.39,0.32,0.71,0.71,0.71h207.41c0.39,0,0.71-0.32,0.71-0.71v-6.19c0-3.88,2.99-7.26,6.87-7.38c4.01-0.12,7.3,3.1,7.3,7.08v6.49
	c0,0.39,0.32,0.71,0.71,0.71h52.09c0.39,0,0.71-0.32,0.71-0.71v-6.19c0-3.88,2.99-7.26,6.87-7.38c4.01-0.12,7.3,3.1,7.3,7.08v6.49
	c0,0.39,0.32,0.71,0.71,0.71h8.15c0.39,0,0.71-0.32,0.71-0.71v-51.52c0-0.39,0.32-0.71,0.71-0.71h23.63c0.39,0,0.71-0.32,0.71-0.71
	v-4.68c0-0.39,0.32-0.71,0.71-0.71h7.55c0.39,0,0.71,0.32,0.71,0.71v57.61c0,0.39,0.32,0.71,0.71,0.71h8.15
	c0.39,0,0.71-0.32,0.71-0.71v-6.19c0-3.88,2.99-7.26,6.87-7.38c4.01-0.12,7.3,3.1,7.3,7.08v6.49c0,0.39,0.32,0.71,0.71,0.71h52.09
	c0.39,0,0.71-0.32,0.71-0.71v-6.19c0-3.88,2.99-7.26,6.87-7.38c4.01-0.12,7.3,3.1,7.3,7.08v6.49c0,0.39,0.32,0.71,0.71,0.71h315.41
	c0.39,0,0.71-0.32,0.71-0.71V0.71H742.5z M601.76,61.87v9.92c0,0.39-0.32,0.71-0.71,0.71h-1.42c-0.39,0-0.71,0.32-0.71,0.71v10.63
	c0,2.35-1.9,4.25-4.25,4.25h-31.72c-0.39,0-0.71,0.32-0.71,0.71v6.73c0,0.39-0.32,0.71-0.71,0.71h-5.13c-0.39,0-0.71-0.32-0.71-0.71
	V68.96c0-0.39,0.32-0.71,0.71-0.71h4.96c0.39,0,0.71-0.32,0.71-0.71v-0.71c0-3.13,2.54-5.67,5.67-5.67h33.31
	C601.44,61.16,601.76,61.48,601.76,61.87z M595.94,23.46c0-0.39,0.32-0.71,0.71-0.71h2.83c0.39,0,0.71,0.32,0.71,0.71v7.09
	c0,0.39-0.32,0.71-0.71,0.71h-2.83c-0.39,0-0.71-0.32-0.71-0.71V23.46z M542.2,14.96c0-0.39,0.32-0.71,0.71-0.71h4.96
	c0.39,0,0.71-0.32,0.71-0.71v-0.71c0-3.13,2.54-5.67,5.67-5.67h33.31c0.39,0,0.71,0.32,0.71,0.71v9.92c0,0.39-0.32,0.71-0.71,0.71
	h-1.42c-0.39,0-0.71,0.32-0.71,0.71v10.63c0,2.35-1.9,4.25-4.25,4.25h-31.73c-0.39,0-0.71,0.32-0.71,0.71v6.73
	c0,0.39-0.32,0.71-0.71,0.71h-5.13c-0.39,0-0.71-0.32-0.71-0.71V14.96H542.2z M547.76,61.87v9.92c0,0.39-0.32,0.71-0.71,0.71h-1.42
	c-0.39,0-0.71,0.32-0.71,0.71v10.63c0,2.35-1.9,4.25-4.25,4.25h-31.72c-0.39,0-0.71,0.32-0.71,0.71v6.73c0,0.39-0.32,0.71-0.71,0.71
	h-5.13c-0.39,0-0.71-0.32-0.71-0.71V68.96c0-0.39,0.32-0.71,0.71-0.71h4.96c0.39,0,0.71-0.32,0.71-0.71v-0.71
	c0-3.13,2.54-5.67,5.67-5.67h33.31C547.44,61.16,547.76,61.48,547.76,61.87z M488.2,14.96c0-0.39,0.32-0.71,0.71-0.71h4.96
	c0.39,0,0.71-0.32,0.71-0.71v-0.71c0-3.13,2.54-5.67,5.67-5.67h33.31c0.39,0,0.71,0.32,0.71,0.71v9.92c0,0.39-0.32,0.71-0.71,0.71
	h-1.42c-0.39,0-0.71,0.32-0.71,0.71v10.63c0,2.35-1.9,4.25-4.25,4.25h-31.73c-0.39,0-0.71,0.32-0.71,0.71v6.73
	c0,0.39-0.32,0.71-0.71,0.71h-5.13c-0.39,0-0.71-0.32-0.71-0.71V14.96H488.2z M493.76,61.87v9.92c0,0.39-0.32,0.71-0.71,0.71h-1.42
	c-0.39,0-0.71,0.32-0.71,0.71v10.63c0,2.35-1.9,4.25-4.25,4.25h-31.72c-0.39,0-0.71,0.32-0.71,0.71v6.73c0,0.39-0.32,0.71-0.71,0.71
	h-5.13c-0.39,0-0.71-0.32-0.71-0.71V68.96c0-0.39,0.32-0.71,0.71-0.71h4.96c0.39,0,0.71-0.32,0.71-0.71v-0.71
	c0-3.13,2.54-5.67,5.67-5.67h33.31C493.44,61.16,493.76,61.48,493.76,61.87z M434.2,14.96c0-0.39,0.32-0.71,0.71-0.71h4.96
	c0.39,0,0.71-0.32,0.71-0.71v-0.71c0-3.13,2.54-5.67,5.67-5.67h33.31c0.39,0,0.71,0.32,0.71,0.71v9.92c0,0.39-0.32,0.71-0.71,0.71
	h-1.42c-0.39,0-0.71,0.32-0.71,0.71v10.63c0,2.35-1.9,4.25-4.25,4.25h-31.73c-0.39,0-0.71,0.32-0.71,0.71v6.73
	c0,0.39-0.32,0.71-0.71,0.71h-5.13c-0.39,0-0.71-0.32-0.71-0.71L434.2,14.96L434.2,14.96z M439.76,61.87v9.92
	c0,0.39-0.32,0.71-0.71,0.71h-1.42c-0.39,0-0.71,0.32-0.71,0.71v10.63c0,2.35-1.9,4.25-4.25,4.25h-31.72
	c-0.39,0-0.71,0.32-0.71,0.71v6.73c0,0.39-0.32,0.71-0.71,0.71h-5.13c-0.39,0-0.71-0.32-0.71-0.71V68.96c0-0.39,0.32-0.71,0.71-0.71
	h4.96c0.39,0,0.71-0.32,0.71-0.71v-0.71c0-3.13,2.54-5.67,5.67-5.67h33.31C439.44,61.16,439.76,61.48,439.76,61.87z M380.2,14.96
	c0-0.39,0.32-0.71,0.71-0.71h4.96c0.39,0,0.71-0.32,0.71-0.71v-0.71c0-3.13,2.54-5.67,5.67-5.67h33.31c0.39,0,0.71,0.32,0.71,0.71
	v9.92c0,0.39-0.32,0.71-0.71,0.71h-1.42c-0.39,0-0.71,0.32-0.71,0.71v10.63c0,2.35-1.9,4.25-4.25,4.25h-31.73
	c-0.39,0-0.71,0.32-0.71,0.71v6.73c0,0.39-0.32,0.71-0.71,0.71h-5.13c-0.39,0-0.71-0.32-0.71-0.71L380.2,14.96L380.2,14.96z
	 M385.76,61.87v9.92c0,0.39-0.32,0.71-0.71,0.71h-1.42c-0.39,0-0.71,0.32-0.71,0.71v10.63c0,2.35-1.9,4.25-4.25,4.25h-31.72
	c-0.39,0-0.71,0.32-0.71,0.71v6.73c0,0.39-0.32,0.71-0.71,0.71h-5.13c-0.39,0-0.71-0.32-0.71-0.71V68.96c0-0.39,0.32-0.71,0.71-0.71
	h4.96c0.39,0,0.71-0.32,0.71-0.71v-0.71c0-3.13,2.54-5.67,5.67-5.67h33.31C385.44,61.16,385.76,61.48,385.76,61.87z M326.2,14.96
	c0-0.39,0.32-0.71,0.71-0.71h4.96c0.39,0,0.71-0.32,0.71-0.71v-0.71c0-3.13,2.54-5.67,5.67-5.67h33.31c0.39,0,0.71,0.32,0.71,0.71
	v9.92c0,0.39-0.32,0.71-0.71,0.71h-1.42c-0.39,0-0.71,0.32-0.71,0.71v10.63c0,2.35-1.9,4.25-4.25,4.25h-31.73
	c-0.39,0-0.71,0.32-0.71,0.71v6.73c0,0.39-0.32,0.71-0.71,0.71h-5.13c-0.39,0-0.71-0.32-0.71-0.71L326.2,14.96L326.2,14.96z
	 M285.7,68.96c0-0.39,0.32-0.71,0.71-0.71h4.96c0.39,0,0.71-0.32,0.71-0.71v-0.71c0-3.13,2.54-5.67,5.67-5.67h33.31
	c0.39,0,0.71,0.32,0.71,0.71v9.92c0,0.39-0.32,0.71-0.71,0.71h-1.42c-0.39,0-0.71,0.32-0.71,0.71v10.63c0,2.35-1.9,4.25-4.25,4.25
	h-31.73c-0.39,0-0.71,0.32-0.71,0.71v6.73c0,0.39-0.32,0.71-0.71,0.71h-5.13c-0.39,0-0.71-0.32-0.71-0.71L285.7,68.96L285.7,68.96z
	 M277.05,61.16c0.39,0,0.71,0.32,0.71,0.71v9.92c0,0.39-0.32,0.71-0.71,0.71h-1.42c-0.39,0-0.71,0.32-0.71,0.71v10.63
	c0,2.35-1.9,4.25-4.25,4.25h-31.72c-0.39,0-0.71,0.32-0.71,0.71v6.73c0,0.39-0.32,0.71-0.71,0.71h-5.13c-0.39,0-0.71-0.32-0.71-0.71
	V68.96c0-0.39,0.32-0.71,0.71-0.71h4.96c0.39,0,0.71-0.32,0.71-0.71v-0.71c0-3.13,2.54-5.67,5.67-5.67
	C243.74,61.16,277.05,61.16,277.05,61.16z M218.2,14.96c0-0.39,0.32-0.71,0.71-0.71h4.96c0.39,0,0.71-0.32,0.71-0.71v-0.71
	c0-3.13,2.54-5.67,5.67-5.67h33.31c0.39,0,0.71,0.32,0.71,0.71v9.92c0,0.39-0.32,0.71-0.71,0.71h-1.42c-0.39,0-0.71,0.32-0.71,0.71
	v10.63c0,2.35-1.9,4.25-4.25,4.25h-31.73c-0.39,0-0.71,0.32-0.71,0.71v6.73c0,0.39-0.32,0.71-0.71,0.71h-5.13
	c-0.39,0-0.71-0.32-0.71-0.71L218.2,14.96L218.2,14.96z M223.76,61.87v9.92c0,0.39-0.32,0.71-0.71,0.71h-1.42
	c-0.39,0-0.71,0.32-0.71,0.71v10.63c0,2.35-1.9,4.25-4.25,4.25h-31.72c-0.39,0-0.71,0.32-0.71,0.71v6.73c0,0.39-0.32,0.71-0.71,0.71
	h-5.13c-0.39,0-0.71-0.32-0.71-0.71V68.96c0-0.39,0.32-0.71,0.71-0.71h4.96c0.39,0,0.71-0.32,0.71-0.71v-0.71
	c0-3.13,2.54-5.67,5.67-5.67h33.31C223.44,61.16,223.76,61.48,223.76,61.87z M164.2,14.96c0-0.39,0.32-0.71,0.71-0.71h4.96
	c0.39,0,0.71-0.32,0.71-0.71v-0.71c0-3.13,2.54-5.67,5.67-5.67h33.31c0.39,0,0.71,0.32,0.71,0.71v9.92c0,0.39-0.32,0.71-0.71,0.71
	h-1.42c-0.39,0-0.71,0.32-0.71,0.71v10.63c0,2.35-1.9,4.25-4.25,4.25h-31.73c-0.39,0-0.71,0.32-0.71,0.71v6.73
	c0,0.39-0.32,0.71-0.71,0.71h-5.13c-0.39,0-0.71-0.32-0.71-0.71V14.96H164.2z M96.7,122.96c0-0.39,0.32-0.71,0.71-0.71h4.96
	c0.39,0,0.71-0.32,0.71-0.71v-0.71c0-3.13,2.54-5.67,5.67-5.67h33.31c0.39,0,0.71,0.32,0.71,0.71v9.92c0,0.39-0.32,0.71-0.71,0.71
	h-1.42c-0.39,0-0.71,0.32-0.71,0.71v10.63c0,2.35-1.9,4.25-4.25,4.25h-31.73c-0.39,0-0.71,0.32-0.71,0.71v6.73
	c0,0.39-0.32,0.71-0.71,0.71H97.4c-0.39,0-0.71-0.32-0.71-0.71L96.7,122.96L96.7,122.96z M76.95,88.09c-0.39,0-0.71,0.32-0.71,0.71
	v6.73c0,0.39-0.32,0.71-0.71,0.71H70.4c-0.39,0-0.71-0.32-0.71-0.71V68.96c0-0.39,0.32-0.71,0.71-0.71h4.96
	c0.39,0,0.71-0.32,0.71-0.71v-0.71c0-3.13,2.54-5.67,5.67-5.67h33.31c0.39,0,0.71,0.32,0.71,0.71v9.92c0,0.39-0.32,0.71-0.71,0.71
	h-1.42c-0.39,0-0.71,0.32-0.71,0.71v10.63c0,2.35-1.9,4.25-4.25,4.25H76.95z M130.95,88.09c-0.39,0-0.71,0.32-0.71,0.71v6.73
	c0,0.39-0.32,0.71-0.71,0.71h-5.13c-0.39,0-0.71-0.32-0.71-0.71V68.96c0-0.39,0.32-0.71,0.71-0.71h4.96c0.39,0,0.71-0.32,0.71-0.71
	v-0.71c0-3.13,2.54-5.67,5.67-5.67h33.31c0.39,0,0.71,0.32,0.71,0.71v9.92c0,0.39-0.32,0.71-0.71,0.71h-1.42
	c-0.39,0-0.71,0.32-0.71,0.71v10.63c0,2.35-1.9,4.25-4.25,4.25H130.95z M110.2,14.96c0-0.39,0.32-0.71,0.71-0.71h4.96
	c0.39,0,0.71-0.32,0.71-0.71v-0.71c0-3.13,2.54-5.67,5.67-5.67h33.31c0.39,0,0.71,0.32,0.71,0.71v9.92c0,0.39-0.32,0.71-0.71,0.71
	h-1.42c-0.39,0-0.71,0.32-0.71,0.71v10.63c0,2.35-1.9,4.25-4.25,4.25h-31.73c-0.39,0-0.71,0.32-0.71,0.71v6.73
	c0,0.39-0.32,0.71-0.71,0.71h-5.13c-0.39,0-0.71-0.32-0.71-0.71L110.2,14.96L110.2,14.96z M56.2,14.96c0-0.39,0.32-0.71,0.71-0.71
	h4.96c0.39,0,0.71-0.32,0.71-0.71v-0.71c0-3.13,2.54-5.67,5.67-5.67h33.31c0.39,0,0.71,0.32,0.71,0.71v9.92
	c0,0.39-0.32,0.71-0.71,0.71h-1.42c-0.39,0-0.71,0.32-0.71,0.71v10.63c0,2.35-1.9,4.25-4.25,4.25H63.45c-0.39,0-0.71,0.32-0.71,0.71
	v6.73c0,0.39-0.32,0.71-0.71,0.71H56.9c-0.39,0-0.71-0.32-0.71-0.71L56.2,14.96L56.2,14.96z M55.01,61.87v9.92
	c0,0.39-0.32,0.71-0.71,0.71h-1.42c-0.39,0-0.71,0.32-0.71,0.71v10.63c0,2.35-1.9,4.25-4.25,4.25H16.2c-0.39,0-0.71,0.32-0.71,0.71
	v6.73c0,0.39-0.32,0.71-0.71,0.71H9.65c-0.39,0-0.71-0.32-0.71-0.71V68.96c0-0.39,0.32-0.71,0.71-0.71h4.96
	c0.39,0,0.71-0.32,0.71-0.71v-0.71c0-3.13,2.54-5.67,5.67-5.67H54.3C54.69,61.16,55.01,61.48,55.01,61.87z M8.74,41.53
	c0,0.39-0.32,0.71-0.71,0.71H2.9c-0.39,0-0.71-0.32-0.71-0.71V14.96c0-0.39,0.32-0.71,0.71-0.71h4.96c0.39,0,0.71-0.32,0.71-0.71
	v-0.71c0-3.13,2.54-5.67,5.67-5.67h33.31c0.39,0,0.71,0.32,0.71,0.71v9.92c0,0.39-0.32,0.71-0.71,0.71h-1.42
	c-0.39,0-0.71,0.32-0.71,0.71v10.63c0,2.35-1.9,4.25-4.25,4.25H9.45c-0.39,0-0.71,0.32-0.71,0.71V41.53z M55.01,179.79
	c0,0.39-0.32,0.71-0.71,0.71h-1.42c-0.39,0-0.71,0.32-0.71,0.71v10.63c0,2.35-1.9,4.25-4.25,4.25H16.2c-0.39,0-0.71,0.32-0.71,0.71
	v6.73c0,0.39-0.32,0.71-0.71,0.71H9.65c-0.39,0-0.71-0.32-0.71-0.71v-26.57c0-0.39,0.32-0.71,0.71-0.71h4.96
	c0.39,0,0.71-0.32,0.71-0.71v-0.71c0-3.13,2.54-5.67,5.67-5.67H54.3c0.39,0,0.71,0.32,0.71,0.71V179.79z M68.51,125.79
	c0,0.39-0.32,0.71-0.71,0.71h-1.42c-0.39,0-0.71,0.32-0.71,0.71v10.63c0,2.35-1.9,4.25-4.25,4.25H29.7c-0.39,0-0.71,0.32-0.71,0.71
	v6.73c0,0.39-0.32,0.71-0.71,0.71h-5.13c-0.39,0-0.71-0.32-0.71-0.71v-26.57c0-0.39,0.32-0.71,0.71-0.71h4.96
	c0.39,0,0.71-0.32,0.71-0.71v-0.71c0-3.13,2.54-5.67,5.67-5.67H67.8c0.39,0,0.71,0.32,0.71,0.71V125.79z M115.76,179.79
	c0,0.39-0.32,0.71-0.71,0.71h-1.42c-0.39,0-0.71,0.32-0.71,0.71v10.63c0,2.35-1.9,4.25-4.25,4.25H76.95c-0.39,0-0.71,0.32-0.71,0.71
	v6.73c0,0.39-0.32,0.71-0.71,0.71H70.4c-0.39,0-0.71-0.32-0.71-0.71v-26.57c0-0.39,0.32-0.71,0.71-0.71h4.96
	c0.39,0,0.71-0.32,0.71-0.71v-0.71c0-3.13,2.54-5.67,5.67-5.67h33.31c0.39,0,0.71,0.32,0.71,0.71V179.79L115.76,179.79z
	 M176.51,179.79c0,0.39-0.32,0.71-0.71,0.71h-1.42c-0.39,0-0.71,0.32-0.71,0.71v10.63c0,2.35-1.9,4.25-4.25,4.25H137.7
	c-0.39,0-0.71,0.32-0.71,0.71v6.73c0,0.39-0.32,0.71-0.71,0.71h-5.13c-0.39,0-0.71-0.32-0.71-0.71v-26.57
	c0-0.39,0.32-0.71,0.71-0.71h4.96c0.39,0,0.71-0.32,0.71-0.71v-0.71c0-3.13,2.54-5.67,5.67-5.67h33.31c0.39,0,0.71,0.32,0.71,0.71
	V179.79L176.51,179.79z M182.9,203.53c0,0.39-0.32,0.71-0.71,0.71h-4.25c-0.39,0-0.71-0.32-0.71-0.71v-8.5
	c0-0.39,0.32-0.71,0.71-0.71h4.25c0.39,0,0.71,0.32,0.71,0.71V203.53z M196.76,125.79c0,0.39-0.32,0.71-0.71,0.71h-1.42
	c-0.39,0-0.71,0.32-0.71,0.71v10.63c0,2.35-1.9,4.25-4.25,4.25h-31.72c-0.39,0-0.71,0.32-0.71,0.71v6.73c0,0.39-0.32,0.71-0.71,0.71
	h-5.13c-0.39,0-0.71-0.32-0.71-0.71v-26.57c0-0.39,0.32-0.71,0.71-0.71h4.96c0.39,0,0.71-0.32,0.71-0.71v-0.71
	c0-3.13,2.54-5.67,5.67-5.67h33.31c0.39,0,0.71,0.32,0.71,0.71L196.76,125.79L196.76,125.79z M204.7,149.53v-26.57
	c0-0.39,0.32-0.71,0.71-0.71h4.96c0.39,0,0.71-0.32,0.71-0.71v-0.71c0-3.13,2.54-5.67,5.67-5.67h33.31c0.39,0,0.71,0.32,0.71,0.71
	v9.92c0,0.39-0.32,0.71-0.71,0.71h-1.42c-0.39,0-0.71,0.32-0.71,0.71v10.63c0,2.35-1.9,4.25-4.25,4.25h-31.73
	c-0.39,0-0.71,0.32-0.71,0.71v6.73c0,0.39-0.32,0.71-0.71,0.71h-5.13C205.01,150.24,204.7,149.92,204.7,149.53z M215.91,174.11
	c-4.7,0-8.5-3.81-8.5-8.5s3.81-8.5,8.5-8.5s8.5,3.81,8.5,8.5S220.61,174.11,215.91,174.11z M271.01,179.79
	c0,0.39-0.32,0.71-0.71,0.71h-1.42c-0.39,0-0.71,0.32-0.71,0.71v10.63c0,2.35-1.9,4.25-4.25,4.25h-28.35c-2.35,0-4.25-1.9-4.25-4.25
	v-3.54c0-0.39-0.32-0.71-0.71-0.71h-4.96c-0.39,0-0.71-0.32-0.71-0.71v-9.92c0-0.39,0.32-0.71,0.71-0.71h4.96
	c0.39,0,0.71-0.32,0.71-0.71v-0.71c0-3.13,2.54-5.67,5.67-5.67h33.31c0.39,0,0.71,0.32,0.71,0.71V179.79z M283.59,174.11
	c-4.7,0-8.5-3.81-8.5-8.5s3.81-8.5,8.5-8.5c4.7,0,8.5,3.81,8.5,8.5S288.29,174.11,283.59,174.11z M304.76,125.79
	c0,0.39-0.32,0.71-0.71,0.71h-1.42c-0.39,0-0.71,0.32-0.71,0.71v10.63c0,2.35-1.9,4.25-4.25,4.25h-31.72
	c-0.39,0-0.71,0.32-0.71,0.71v6.73c0,0.39-0.32,0.71-0.71,0.71h-5.13c-0.39,0-0.71-0.32-0.71-0.71v-26.57
	c0-0.39,0.32-0.71,0.71-0.71h4.96c0.39,0,0.71-0.32,0.71-0.71v-0.71c0-3.13,2.54-5.67,5.67-5.67h33.31c0.39,0,0.71,0.32,0.71,0.71
	V125.79z M319.95,142.09c-0.39,0-0.71,0.32-0.71,0.71v6.73c0,0.39-0.32,0.71-0.71,0.71h-5.13c-0.39,0-0.71-0.32-0.71-0.71v-26.57
	c0-0.39,0.32-0.71,0.71-0.71h4.96c0.39,0,0.71-0.32,0.71-0.71v-0.71c0-3.13,2.54-5.67,5.67-5.67h33.31c0.39,0,0.71,0.32,0.71,0.71
	v9.92c0,0.39-0.32,0.71-0.71,0.71h-1.42c-0.39,0-0.71,0.32-0.71,0.71v10.63c0,2.35-1.9,4.25-4.25,4.25H319.95L319.95,142.09z
	 M350.91,174.11c-4.7,0-8.5-3.81-8.5-8.5s3.81-8.5,8.5-8.5s8.5,3.81,8.5,8.5S355.61,174.11,350.91,174.11z M406.01,179.79
	c0,0.39-0.32,0.71-0.71,0.71h-1.42c-0.39,0-0.71,0.32-0.71,0.71v10.63c0,2.35-1.9,4.25-4.25,4.25h-28.35c-2.35,0-4.25-1.9-4.25-4.25
	v-3.54c0-0.39-0.32-0.71-0.71-0.71h-4.96c-0.39,0-0.71-0.32-0.71-0.71v-9.92c0-0.39,0.32-0.71,0.71-0.71h4.96
	c0.39,0,0.71-0.32,0.71-0.71v-0.71c0-3.13,2.54-5.67,5.67-5.67h33.31c0.39,0,0.71,0.32,0.71,0.71V179.79z M409.92,137.84
	c0,2.35-1.9,4.25-4.25,4.25h-31.72c-0.39,0-0.71,0.32-0.71,0.71v6.73c0,0.39-0.32,0.71-0.71,0.71h-5.13c-0.39,0-0.71-0.32-0.71-0.71
	v-26.57c0-0.39,0.32-0.71,0.71-0.71h4.96c0.39,0,0.71-0.32,0.71-0.71v-0.71c0-3.13,2.54-5.67,5.67-5.67h33.31
	c0.39,0,0.71,0.32,0.71,0.71v9.92c0,0.39-0.32,0.71-0.71,0.71h-1.42c-0.39,0-0.71,0.32-0.71,0.71V137.84z M418.59,174.11
	c-4.7,0-8.5-3.81-8.5-8.5s3.81-8.5,8.5-8.5c4.7,0,8.5,3.81,8.5,8.5S423.29,174.11,418.59,174.11z M452.2,203.53
	c0,0.39-0.32,0.71-0.71,0.71h-4.25c-0.39,0-0.71-0.32-0.71-0.71v-8.5c0-0.39,0.32-0.71,0.71-0.71h4.25c0.39,0,0.71,0.32,0.71,0.71
	V203.53z M427.95,142.09c-0.39,0-0.71,0.32-0.71,0.71v6.73c0,0.39-0.32,0.71-0.71,0.71h-5.13c-0.39,0-0.71-0.32-0.71-0.71v-26.57
	c0-0.39,0.32-0.71,0.71-0.71h4.96c0.39,0,0.71-0.32,0.71-0.71v-0.71c0-3.13,2.54-5.67,5.67-5.67h33.31c0.39,0,0.71,0.32,0.71,0.71
	v9.92c0,0.39-0.32,0.71-0.71,0.71h-1.42c-0.39,0-0.71,0.32-0.71,0.71v10.63c0,2.35-1.9,4.25-4.25,4.25H427.95L427.95,142.09z
	 M507.26,179.79c0,0.39-0.32,0.71-0.71,0.71h-1.42c-0.39,0-0.71,0.32-0.71,0.71v10.63c0,2.35-1.9,4.25-4.25,4.25h-31.72
	c-0.39,0-0.71,0.32-0.71,0.71v6.73c0,0.39-0.32,0.71-0.71,0.71h-5.13c-0.39,0-0.71-0.32-0.71-0.71v-26.57
	c0-0.39,0.32-0.71,0.71-0.71h4.96c0.39,0,0.71-0.32,0.71-0.71v-0.71c0-3.13,2.54-5.67,5.67-5.67h33.31c0.39,0,0.71,0.32,0.71,0.71
	V179.79z M520.76,125.79c0,0.39-0.32,0.71-0.71,0.71h-1.42c-0.39,0-0.71,0.32-0.71,0.71v10.63c0,2.35-1.9,4.25-4.25,4.25h-31.72
	c-0.39,0-0.71,0.32-0.71,0.71v6.73c0,0.39-0.32,0.71-0.71,0.71h-5.13c-0.39,0-0.71-0.32-0.71-0.71v-26.57
	c0-0.39,0.32-0.71,0.71-0.71h4.96c0.39,0,0.71-0.32,0.71-0.71v-0.71c0-3.13,2.54-5.67,5.67-5.67h33.31c0.39,0,0.71,0.32,0.71,0.71
	V125.79z M568.01,179.79c0,0.39-0.32,0.71-0.71,0.71h-1.42c-0.39,0-0.71,0.32-0.71,0.71v10.63c0,2.35-1.9,4.25-4.25,4.25H529.2
	c-0.39,0-0.71,0.32-0.71,0.71v6.73c0,0.39-0.32,0.71-0.71,0.71h-5.13c-0.39,0-0.71-0.32-0.71-0.71v-26.57
	c0-0.39,0.32-0.71,0.71-0.71h4.96c0.39,0,0.71-0.32,0.71-0.71v-0.71c0-3.13,2.54-5.67,5.67-5.67h33.31c0.39,0,0.71,0.32,0.71,0.71
	V179.79z M574.76,125.79c0,0.39-0.32,0.71-0.71,0.71h-1.42c-0.39,0-0.71,0.32-0.71,0.71v10.63c0,2.35-1.9,4.25-4.25,4.25h-31.72
	c-0.39,0-0.71,0.32-0.71,0.71v6.73c0,0.39-0.32,0.71-0.71,0.71h-5.13c-0.39,0-0.71-0.32-0.71-0.71v-26.57
	c0-0.39,0.32-0.71,0.71-0.71h4.96c0.39,0,0.71-0.32,0.71-0.71v-0.71c0-3.13,2.54-5.67,5.67-5.67h33.31c0.39,0,0.71,0.32,0.71,0.71
	V125.79z M628.76,179.79c0,0.39-0.32,0.71-0.71,0.71h-1.42c-0.39,0-0.71,0.32-0.71,0.71v10.63c0,2.35-1.9,4.25-4.25,4.25h-31.72
	c-0.39,0-0.71,0.32-0.71,0.71v6.73c0,0.39-0.32,0.71-0.71,0.71h-5.13c-0.39,0-0.71-0.32-0.71-0.71v-26.57
	c0-0.39,0.32-0.71,0.71-0.71h4.96c0.39,0,0.71-0.32,0.71-0.71v-0.71c0-3.13,2.54-5.67,5.67-5.67h33.31c0.39,0,0.71,0.32,0.71,0.71
	V179.79z M628.76,125.79c0,0.39-0.32,0.71-0.71,0.71h-1.42c-0.39,0-0.71,0.32-0.71,0.71v10.63c0,2.35-1.9,4.25-4.25,4.25h-31.72
	c-0.39,0-0.71,0.32-0.71,0.71v6.73c0,0.39-0.32,0.71-0.71,0.71h-5.13c-0.39,0-0.71-0.32-0.71-0.71v-26.57
	c0-0.39,0.32-0.71,0.71-0.71h4.96c0.39,0,0.71-0.32,0.71-0.71v-0.71c0-3.13,2.54-5.67,5.67-5.67h33.31c0.39,0,0.71,0.32,0.71,0.71
	V125.79z M629.58,83.84V80.3c0-0.39-0.32-0.71-0.71-0.71h-4.96c-0.39,0-0.71-0.32-0.71-0.71v-9.92c0-0.39,0.32-0.71,0.71-0.71h4.96
	c0.39,0,0.71-0.32,0.71-0.71v-0.71c0-3.13,2.54-5.67,5.67-5.67h33.31c0.39,0,0.71,0.32,0.71,0.71v9.45v0.48v23.74
	c0,0.39-0.32,0.71-0.71,0.71h-4.45c-0.39,0-0.71-0.32-0.71-0.71v-6.73c0-0.39-0.32-0.71-0.71-0.71h-28.86
	C631.48,88.09,629.58,86.19,629.58,83.84z M682.76,179.32v0.48v23.74c0,0.39-0.32,0.71-0.71,0.71h-4.45c-0.39,0-0.71-0.32-0.71-0.71
	v-6.73c0-0.39-0.32-0.71-0.71-0.71h-28.86c-2.35,0-4.25-1.9-4.25-4.25v-3.54c0-0.39-0.32-0.71-0.71-0.71h-4.96
	c-0.39,0-0.71-0.32-0.71-0.71v-9.92c0-0.39,0.32-0.71,0.71-0.71h4.96c0.39,0,0.71-0.32,0.71-0.71v-0.71c0-3.13,2.54-5.67,5.67-5.67
	h33.31c0.39,0,0.71,0.32,0.71,0.71L682.76,179.32L682.76,179.32z M682.76,125.32v0.48v23.74c0,0.39-0.32,0.71-0.71,0.71h-4.45
	c-0.39,0-0.71-0.32-0.71-0.71v-6.73c0-0.39-0.32-0.71-0.71-0.71h-28.86c-2.35,0-4.25-1.9-4.25-4.25v-3.54
	c0-0.39-0.32-0.71-0.71-0.71h-4.96c-0.39,0-0.71-0.32-0.71-0.71v-9.92c0-0.39,0.32-0.71,0.71-0.71h4.96c0.39,0,0.71-0.32,0.71-0.71
	v-0.71c0-3.13,2.54-5.67,5.67-5.67h33.31c0.39,0,0.71,0.32,0.71,0.71L682.76,125.32L682.76,125.32z M736.76,179.79
	c0,0.39-0.32,0.71-0.71,0.71h-1.42c-0.39,0-0.71,0.32-0.71,0.71v10.63c0,2.35-1.9,4.25-4.25,4.25h-31.72
	c-0.39,0-0.71,0.32-0.71,0.71v6.73c0,0.39-0.32,0.71-0.71,0.71h-5.13c-0.39,0-0.71-0.32-0.71-0.71v-26.57
	c0-0.39,0.32-0.71,0.71-0.71h4.96c0.39,0,0.71-0.32,0.71-0.71v-0.71c0-3.13,2.54-5.67,5.67-5.67h33.31c0.39,0,0.71,0.32,0.71,0.71
	V179.79z M736.76,125.79c0,0.39-0.32,0.71-0.71,0.71h-1.42c-0.39,0-0.71,0.32-0.71,0.71v10.63c0,2.35-1.9,4.25-4.25,4.25h-31.72
	c-0.39,0-0.71,0.32-0.71,0.71v6.73c0,0.39-0.32,0.71-0.71,0.71h-5.13c-0.39,0-0.71-0.32-0.71-0.71v-26.57
	c0-0.39,0.32-0.71,0.71-0.71h4.96c0.39,0,0.71-0.32,0.71-0.71v-0.71c0-3.13,2.54-5.67,5.67-5.67h33.31c0.39,0,0.71,0.32,0.71,0.71
	V125.79z M736.76,71.79c0,0.39-0.32,0.71-0.71,0.71h-1.42c-0.39,0-0.71,0.32-0.71,0.71v10.63c0,2.35-1.9,4.25-4.25,4.25h-31.72
	c-0.39,0-0.71,0.32-0.71,0.71v6.73c0,0.39-0.32,0.71-0.71,0.71h-5.13c-0.39,0-0.71-0.32-0.71-0.71V68.96c0-0.39,0.32-0.71,0.71-0.71
	h4.96c0.39,0,0.71-0.32,0.71-0.71v-0.71c0-3.13,2.54-5.67,5.67-5.67h33.31c0.39,0,0.71,0.32,0.71,0.71V71.79z"/>
</svg>
