<?xml version="1.0" encoding="utf-8"?>
<svg version="1.1" id="レイヤー_1" xmlns="http://www.w3.org/2000/svg" xmlns:xlink="http://www.w3.org/1999/xlink" x="0px"
	 y="0px" viewBox="0 0 742.55 216.01" style="enable-background:new 0 0 742.55 216.01;" xml:space="preserve">
<style type="text/css">
	.st0{fill:none;stroke:#000000;stroke-width:0.25;stroke-linecap:round;stroke-linejoin:round;stroke-miterlimit:11.3386;}
</style>
<path class="st0" d="M742.5,0.71c0-0.39-0.32-0.71-0.71-0.71H330.38c-0.39,0-0.71,0.32-0.71,0.71v4.72c0,2.96-2.16,5.61-5.11,5.89
	c-3.38,0.32-6.23-2.33-6.23-5.64V0.72c0-0.39-0.32-0.71-0.71-0.71H0.71C0.32,0.01,0,0.33,0,0.72V215.3c0,0.39,0.32,0.71,0.71,0.71
	h202.98c0.39,0,0.71-0.32,0.71-0.71v-61.02c0-0.39,0.32-0.71,0.71-0.71h3.84c0.39,0,0.71-0.32,0.71-0.71v-36.28
	c0-0.78,0.63-1.42,1.42-1.42h36.85c0.78,0,1.42,0.63,1.42,1.42v36.14c0,0.39,0.32,0.71,0.71,0.71h12.9c0.39,0,0.71-0.32,0.71-0.71
	v-36.14c0-0.78,0.63-1.42,1.42-1.42h36.85c0.78,0,1.42,0.63,1.42,1.42v36.85c0,0.78-0.63,1.42-1.42,1.42h-6.11
	c-0.39,0-0.71,0.32-0.71,0.71v59.74c0,0.39,0.32,0.71,0.71,0.71h21.81c0.39,0,0.71-0.32,0.71-0.71v-4.72c0-2.96,2.16-5.61,5.11-5.89
	c3.38-0.32,6.23,2.33,6.23,5.64v4.96c0,0.39,0.32,0.71,0.71,0.71h8.31c0.39,0,0.71-0.32,0.71-0.71v-59.74
	c0-0.39-0.32-0.71-0.71-0.71H319.1c-0.78,0-1.42-0.63-1.42-1.42v-36.85c0-0.78,0.63-1.42,1.42-1.42h36.85
	c0.78,0,1.42,0.63,1.42,1.42v36.14c0,0.39,0.32,0.71,0.71,0.71h12.9c0.39,0,0.71-0.32,0.71-0.71v-36.14c0-0.78,0.63-1.42,1.42-1.42
	h36.85c0.78,0,1.42,0.63,1.42,1.42v36.14c0,0.39,0.32,0.71,0.71,0.71h12.9c0.39,0,0.71-0.32,0.71-0.71v-36.14
	c0-0.78,0.63-1.42,1.42-1.42h36.85c0.78,0,1.42,0.63,1.42,1.42v36.85c0,0.78-0.63,1.42-1.42,1.42h-33.11
	c-0.39,0-0.71,0.32-0.71,0.71v59.74c0,0.39,0.32,0.71,0.71,0.71h310.98c0.39,0,0.71-0.32,0.71-0.71V0.71H742.5z M169.16,8.58
	c0-0.78,0.63-1.42,1.42-1.42h36.85c0.78,0,1.42,0.63,1.42,1.42v36.85c0,0.78-0.63,1.42-1.42,1.42h-36.85
	c-0.78,0-1.42-0.63-1.42-1.42L169.16,8.58L169.16,8.58z M162.94,62.58v36.85c0,0.78-0.63,1.42-1.42,1.42h-36.85
	c-0.78,0-1.42-0.63-1.42-1.42V62.58c0-0.78,0.63-1.42,1.42-1.42h36.85C162.31,61.16,162.94,61.79,162.94,62.58z M141.34,116.58
	v36.85c0,0.78-0.63,1.42-1.42,1.42h-36.85c-0.78,0-1.42-0.63-1.42-1.42v-36.85c0-0.78,0.63-1.42,1.42-1.42h36.85
	C140.71,115.16,141.34,115.79,141.34,116.58z M115.16,8.58c0-0.78,0.63-1.42,1.42-1.42h36.85c0.78,0,1.42,0.63,1.42,1.42v36.85
	c0,0.78-0.63,1.42-1.42,1.42h-36.85c-0.78,0-1.42-0.63-1.42-1.42L115.16,8.58L115.16,8.58z M61.16,8.58c0-0.78,0.63-1.42,1.42-1.42
	h36.85c0.78,0,1.42,0.63,1.42,1.42v36.85c0,0.78-0.63,1.42-1.42,1.42H62.58c-0.78,0-1.42-0.63-1.42-1.42
	C61.16,45.43,61.16,8.58,61.16,8.58z M53.59,62.58v36.85c0,0.78-0.63,1.42-1.42,1.42H15.32c-0.78,0-1.42-0.63-1.42-1.42V62.58
	c0-0.78,0.63-1.42,1.42-1.42h36.85C52.96,61.16,53.59,61.79,53.59,62.58z M7.16,45.43V8.58c0-0.78,0.63-1.42,1.42-1.42h36.85
	c0.78,0,1.42,0.63,1.42,1.42v36.85c0,0.78-0.63,1.42-1.42,1.42H8.57C7.79,46.84,7.16,46.21,7.16,45.43z M53.59,207.43
	c0,0.78-0.63,1.42-1.42,1.42H15.32c-0.78,0-1.42-0.63-1.42-1.42v-36.85c0-0.78,0.63-1.42,1.42-1.42h36.85
	c0.78,0,1.42,0.63,1.42,1.42C53.59,170.58,53.59,207.43,53.59,207.43z M67.09,153.43c0,0.78-0.63,1.42-1.42,1.42H28.82
	c-0.78,0-1.42-0.63-1.42-1.42v-36.85c0-0.78,0.63-1.42,1.42-1.42h36.85c0.78,0,1.42,0.63,1.42,1.42V153.43z M68.58,99.43V62.58
	c0-0.78,0.63-1.42,1.42-1.42h36.85c0.78,0,1.42,0.63,1.42,1.42v36.85c0,0.78-0.63,1.42-1.42,1.42H70
	C69.22,100.84,68.58,100.21,68.58,99.43z M114.34,207.43c0,0.78-0.63,1.42-1.42,1.42H76.07c-0.78,0-1.42-0.63-1.42-1.42v-36.85
	c0-0.78,0.63-1.42,1.42-1.42h36.85c0.78,0,1.42,0.63,1.42,1.42V207.43z M173.67,208.84h-36.85c-0.78,0-1.42-0.63-1.42-1.42v-36.85
	c0-0.78,0.63-1.42,1.42-1.42h36.85c0.78,0,1.42,0.63,1.42,1.42v36.85C175.09,208.21,174.46,208.84,173.67,208.84z M195.34,153.43
	c0,0.78-0.63,1.42-1.42,1.42h-36.85c-0.78,0-1.42-0.63-1.42-1.42v-36.85c0-0.78,0.63-1.42,1.42-1.42h36.85
	c0.78,0,1.42,0.63,1.42,1.42L195.34,153.43L195.34,153.43z M217.62,99.43c0,0.78-0.63,1.42-1.42,1.42h-36.85
	c-0.78,0-1.42-0.63-1.42-1.42V62.58c0-0.78,0.63-1.42,1.42-1.42h36.85c0.78,0,1.42,0.63,1.42,1.42L217.62,99.43L217.62,99.43z
	 M223.16,45.43V8.58c0-0.78,0.63-1.42,1.42-1.42h36.85c0.78,0,1.42,0.63,1.42,1.42v36.85c0,0.78-0.63,1.42-1.42,1.42h-36.85
	C223.79,46.84,223.16,46.21,223.16,45.43z M272.29,99.43c0,0.78-0.63,1.42-1.42,1.42h-36.85c-0.78,0-1.42-0.63-1.42-1.42V62.58
	c0-0.78,0.63-1.42,1.42-1.42h36.85c0.78,0,1.42,0.63,1.42,1.42V99.43z M277.16,45.43V8.58c0-0.78,0.63-1.42,1.42-1.42h36.85
	c0.78,0,1.42,0.63,1.42,1.42v36.85c0,0.78-0.63,1.42-1.42,1.42h-36.85C277.79,46.84,277.16,46.21,277.16,45.43z M326.97,99.43
	c0,0.78-0.63,1.42-1.42,1.42H288.7c-0.78,0-1.42-0.63-1.42-1.42V62.58c0-0.78,0.63-1.42,1.42-1.42h36.85c0.78,0,1.42,0.63,1.42,1.42
	L326.97,99.43L326.97,99.43z M621.41,8.58c0-0.78,0.63-1.42,1.42-1.42h36.85c0.78,0,1.42,0.63,1.42,1.42v36.85
	c0,0.78-0.63,1.42-1.42,1.42h-36.85c-0.78,0-1.42-0.63-1.42-1.42V8.58z M605.27,25.58c0.78,0,1.42,0.63,1.42,1.42
	s-0.63,1.42-1.42,1.42c-0.78,0-1.42-0.63-1.42-1.42S604.48,25.58,605.27,25.58z M600.34,62.58v36.85c0,0.78-0.63,1.42-1.42,1.42
	h-36.85c-0.78,0-1.42-0.63-1.42-1.42V62.58c0-0.78,0.63-1.42,1.42-1.42h36.85C599.71,61.16,600.34,61.79,600.34,62.58z M547.16,8.58
	c0-0.78,0.63-1.42,1.42-1.42h36.85c0.78,0,1.42,0.63,1.42,1.42v36.85c0,0.78-0.63,1.42-1.42,1.42h-36.85
	c-0.78,0-1.42-0.63-1.42-1.42V8.58z M545.67,62.58v36.85c0,0.78-0.63,1.42-1.42,1.42H507.4c-0.78,0-1.42-0.63-1.42-1.42V62.58
	c0-0.78,0.63-1.42,1.42-1.42h36.85C545.03,61.16,545.67,61.79,545.67,62.58z M493.16,8.58c0-0.78,0.63-1.42,1.42-1.42h36.85
	c0.78,0,1.42,0.63,1.42,1.42v36.85c0,0.78-0.63,1.42-1.42,1.42h-36.85c-0.78,0-1.42-0.63-1.42-1.42L493.16,8.58L493.16,8.58z
	 M331.16,45.43V8.58c0-0.78,0.63-1.42,1.42-1.42h36.85c0.78,0,1.42,0.63,1.42,1.42v36.85c0,0.78-0.63,1.42-1.42,1.42h-36.85
	C331.79,46.84,331.16,46.21,331.16,45.43z M381.64,99.43c0,0.78-0.63,1.42-1.42,1.42h-36.85c-0.78,0-1.42-0.63-1.42-1.42V62.58
	c0-0.78,0.63-1.42,1.42-1.42h36.85c0.78,0,1.42,0.63,1.42,1.42V99.43z M385.16,45.43V8.58c0-0.78,0.63-1.42,1.42-1.42h36.85
	c0.78,0,1.42,0.63,1.42,1.42v36.85c0,0.78-0.63,1.42-1.42,1.42h-36.85C385.79,46.84,385.16,46.21,385.16,45.43z M436.32,99.43
	c0,0.78-0.63,1.42-1.42,1.42h-36.85c-0.78,0-1.42-0.63-1.42-1.42V62.58c0-0.78,0.63-1.42,1.42-1.42h36.85
	c0.78,0,1.42,0.63,1.42,1.42V99.43z M439.16,45.43V8.58c0-0.78,0.63-1.42,1.42-1.42h36.85c0.78,0,1.42,0.63,1.42,1.42v36.85
	c0,0.78-0.63,1.42-1.42,1.42h-36.85C439.79,46.84,439.16,46.21,439.16,45.43z M452.72,100.84c-0.78,0-1.42-0.63-1.42-1.42V62.57
	c0-0.78,0.63-1.42,1.42-1.42h36.85c0.78,0,1.42,0.63,1.42,1.42v36.85c0,0.78-0.63,1.42-1.42,1.42H452.72z M505.84,207.43
	c0,0.78-0.63,1.42-1.42,1.42h-36.85c-0.78,0-1.42-0.63-1.42-1.42v-36.85c0-0.78,0.63-1.42,1.42-1.42h36.85
	c0.78,0,1.42,0.63,1.42,1.42V207.43z M519.34,153.43c0,0.78-0.63,1.42-1.42,1.42h-36.85c-0.78,0-1.42-0.63-1.42-1.42v-36.85
	c0-0.78,0.63-1.42,1.42-1.42h36.85c0.78,0,1.42,0.63,1.42,1.42V153.43z M566.59,207.43c0,0.78-0.63,1.42-1.42,1.42h-36.85
	c-0.78,0-1.42-0.63-1.42-1.42v-36.85c0-0.78,0.63-1.42,1.42-1.42h36.85c0.78,0,1.42,0.63,1.42,1.42V207.43z M573.34,153.43
	c0,0.78-0.63,1.42-1.42,1.42h-36.85c-0.78,0-1.42-0.63-1.42-1.42v-36.85c0-0.78,0.63-1.42,1.42-1.42h36.85
	c0.78,0,1.42,0.63,1.42,1.42V153.43z M627.34,207.43c0,0.78-0.63,1.42-1.42,1.42h-36.85c-0.78,0-1.42-0.63-1.42-1.42v-36.85
	c0-0.78,0.63-1.42,1.42-1.42h36.85c0.78,0,1.42,0.63,1.42,1.42V207.43z M627.34,153.43c0,0.78-0.63,1.42-1.42,1.42h-36.85
	c-0.78,0-1.42-0.63-1.42-1.42v-36.85c0-0.78,0.63-1.42,1.42-1.42h36.85c0.78,0,1.42,0.63,1.42,1.42V153.43z M628.16,99.43V62.58
	c0-0.78,0.63-1.42,1.42-1.42h36.85c0.78,0,1.42,0.63,1.42,1.42v36.85c0,0.78-0.63,1.42-1.42,1.42h-36.85
	C628.79,100.84,628.16,100.21,628.16,99.43z M681.34,207.43c0,0.78-0.63,1.42-1.42,1.42h-36.85c-0.78,0-1.42-0.63-1.42-1.42v-36.85
	c0-0.78,0.63-1.42,1.42-1.42h36.85c0.78,0,1.42,0.63,1.42,1.42V207.43z M681.34,153.43c0,0.78-0.63,1.42-1.42,1.42h-36.85
	c-0.78,0-1.42-0.63-1.42-1.42v-36.85c0-0.78,0.63-1.42,1.42-1.42h36.85c0.78,0,1.42,0.63,1.42,1.42V153.43z M735.34,207.43
	c0,0.78-0.63,1.42-1.42,1.42h-36.85c-0.78,0-1.42-0.63-1.42-1.42v-36.85c0-0.78,0.63-1.42,1.42-1.42h36.85
	c0.78,0,1.42,0.63,1.42,1.42V207.43z M735.34,153.43c0,0.78-0.63,1.42-1.42,1.42h-36.85c-0.78,0-1.42-0.63-1.42-1.42v-36.85
	c0-0.78,0.63-1.42,1.42-1.42h36.85c0.78,0,1.42,0.63,1.42,1.42V153.43z M735.34,99.43c0,0.78-0.63,1.42-1.42,1.42h-36.85
	c-0.78,0-1.42-0.63-1.42-1.42V62.58c0-0.78,0.63-1.42,1.42-1.42h36.85c0.78,0,1.42,0.63,1.42,1.42V99.43z M735.34,45.43
	c0,0.78-0.63,1.42-1.42,1.42h-36.85c-0.78,0-1.42-0.63-1.42-1.42V8.58c0-0.78,0.63-1.42,1.42-1.42h36.85c0.78,0,1.42,0.63,1.42,1.42
	V45.43z"/>
</svg>
